<?xml version="1.0" standalone="no"?>
<!DOCTYPE svg PUBLIC "-//W3C//DTD SVG 20010904//EN"
 "http://www.w3.org/TR/2001/REC-SVG-20010904/DTD/svg10.dtd">
<svg version="1.0" xmlns="http://www.w3.org/2000/svg"
 width="800.000000pt" height="800.000000pt" viewBox="0 0 800.000000 800.000000"
 preserveAspectRatio="xMidYMid meet">
<metadata>
Created by potrace 1.11, written by Peter Selinger 2001-2013
</metadata>
<g transform="translate(0.000000,800.000000) scale(0.100000,-0.100000)"
fill="#000000" stroke="none">
<path d="M0 7909 c0 -57 4 -88 10 -84 13 8 13 175 0 175 -6 0 -10 -37 -10 -91z"/>
<path d="M1070 7945 c0 -37 4 -55 13 -55 8 0 11 16 9 55 -5 71 -22 71 -22 0z"/>
<path d="M960 7950 c0 -5 5 -10 10 -10 6 0 10 5 10 10 0 6 -4 10 -10 10 -5 0
-10 -4 -10 -10z"/>
<path d="M216 7921 c-4 -7 -5 -15 -2 -18 9 -9 19 4 14 18 -4 11 -6 11 -12 0z"/>
<path d="M1165 7850 c-3 -5 1 -10 10 -10 9 0 13 5 10 10 -3 6 -8 10 -10 10 -2
0 -7 -4 -10 -10z"/>
<path d="M110 7804 c0 -8 5 -12 10 -9 6 3 10 10 10 16 0 5 -4 9 -10 9 -5 0
-10 -7 -10 -16z"/>
<path d="M966 7763 c-8 -49 -6 -330 3 -413 5 -40 8 33 8 193 1 141 0 257 -2
257 -1 0 -5 -17 -9 -37z"/>
<path d="M1278 7793 c7 -3 16 -2 19 1 4 3 -2 6 -13 5 -11 0 -14 -3 -6 -6z"/>
<path d="M1070 7601 c0 -103 4 -172 10 -176 7 -4 10 55 10 169 0 111 -4 176
-10 176 -6 0 -10 -63 -10 -169z"/>
<path d="M1435 7720 c3 -5 11 -10 16 -10 6 0 7 5 4 10 -3 6 -11 10 -16 10 -6
0 -7 -4 -4 -10z"/>
<path d="M0 7565 c0 -205 18 -205 22 0 2 119 0 155 -9 155 -10 0 -13 -38 -13
-155z"/>
<path d="M498 7713 c7 -3 16 -2 19 1 4 3 -2 6 -13 5 -11 0 -14 -3 -6 -6z"/>
<path d="M1775 7570 c-3 -5 -1 -10 4 -10 6 0 11 5 11 10 0 6 -2 10 -4 10 -3 0
-8 -4 -11 -10z"/>
<path d="M110 7379 c0 -5 5 -7 10 -4 6 3 10 8 10 11 0 2 -4 4 -10 4 -5 0 -10
-5 -10 -11z"/>
<path d="M1 7173 c1 -106 3 -126 9 -88 12 74 12 225 0 225 -6 0 -9 -52 -9
-137z"/>
<path d="M513 7125 c0 -27 2 -38 4 -22 2 15 2 37 0 50 -2 12 -4 0 -4 -28z"/>
<path d="M0 7010 c0 -19 3 -21 12 -12 9 9 9 15 0 24 -9 9 -12 7 -12 -12z"/>
<path d="M0 6869 c0 -5 5 -7 10 -4 5 3 10 8 10 11 0 2 -4 4 -10 4 -5 0 -10 -5
-10 -11z"/>
<path d="M360 6650 c0 -5 5 -10 10 -10 6 0 10 5 10 10 0 6 -4 10 -10 10 -5 0
-10 -4 -10 -10z"/>
<path d="M310 6620 c0 -5 5 -10 10 -10 6 0 10 5 10 10 0 6 -4 10 -10 10 -5 0
-10 -4 -10 -10z"/>
<path d="M1147 6579 c7 -7 15 -10 18 -7 3 3 -2 9 -12 12 -14 6 -15 5 -6 -5z"/>
<path d="M1233 6553 c9 -2 23 -2 30 0 6 3 -1 5 -18 5 -16 0 -22 -2 -12 -5z"/>
<path d="M105 6520 c4 -6 11 -8 16 -5 14 9 11 15 -7 15 -8 0 -12 -5 -9 -10z"/>
<path d="M1433 6503 c9 -2 23 -2 30 0 6 3 -1 5 -18 5 -16 0 -22 -2 -12 -5z"/>
<path d="M2733 6483 c-7 -3 -13 -15 -13 -28 0 -53 -24 -61 -120 -40 -35 8 -70
-9 -70 -33 0 -26 -20 -42 -51 -42 -50 0 -58 -7 -46 -46 6 -19 7 -37 3 -41 -3
-4 -27 -2 -51 5 -54 14 -127 16 -169 3 -170 -53 -173 -53 -203 -35 -15 10 -40
29 -55 42 -26 24 -34 25 -138 25 -122 0 -122 -1 -52 60 18 17 31 35 29 41 -2
6 -40 13 -91 16 -54 4 -90 10 -95 18 -19 32 -217 -41 -293 -109 -18 -16 -36
-29 -39 -29 -4 0 -22 -22 -40 -50 -19 -27 -39 -50 -46 -50 -7 0 -25 -17 -40
-37 -27 -36 -32 -44 -59 -76 -7 -8 -14 -23 -17 -33 -2 -10 -6 26 -7 81 -4 195
-18 221 -17 32 0 -172 0 -178 -23 -202 -13 -13 -39 -30 -59 -36 -20 -6 -55
-20 -79 -31 -23 -10 -55 -21 -72 -24 -16 -4 -35 -13 -41 -20 -6 -8 -18 -14
-26 -14 -7 0 -31 -9 -53 -20 -22 -11 -50 -20 -64 -20 -16 0 -30 -8 -37 -22
-24 -44 -98 -93 -127 -84 -12 4 -21 -2 -27 -17 -9 -19 -65 -54 -114 -71 -9 -3
-56 -30 -105 -61 -49 -30 -90 -55 -92 -55 -2 0 -26 -13 -52 -30 -27 -16 -57
-30 -66 -30 -15 0 -16 -196 -16 -2576 l0 -2575 23 7 c29 9 47 23 47 39 0 7 12
21 28 30 15 10 57 49 93 87 36 37 72 68 80 68 7 0 30 17 50 38 20 20 51 50 68
65 16 15 34 34 38 41 4 7 28 26 52 42 43 28 99 76 189 162 53 51 171 208 201
267 11 23 21 60 21 81 0 59 15 99 54 147 20 24 36 49 36 56 0 7 -21 11 -57 12
l-58 1 50 14 c28 7 60 14 73 14 28 0 138 100 134 121 -2 9 4 22 13 29 21 17
21 132 0 150 -20 17 -19 26 10 64 14 18 25 40 25 49 0 9 4 19 10 22 17 10 11
79 -11 131 -15 37 -32 57 -72 84 -29 19 -54 38 -57 41 -3 3 -12 9 -20 12 -12
4 -11 6 3 6 30 2 105 -39 123 -67 10 -15 26 -33 36 -40 24 -18 58 -85 58 -117
0 -32 20 -32 50 0 28 30 75 55 102 55 10 0 26 4 36 9 9 5 31 14 47 20 17 6 39
25 50 41 11 18 44 42 75 56 66 32 151 118 250 255 71 99 100 120 139 99 26
-13 67 -64 87 -105 9 -19 33 -50 53 -68 32 -29 48 -35 104 -41 37 -3 72 -9 79
-11 7 -3 37 12 65 34 66 49 64 47 153 161 57 71 81 112 99 165 13 39 31 84 42
101 20 33 52 149 78 284 5 25 20 71 35 103 30 67 32 87 10 87 -25 0 -93 41
-97 59 -4 13 -5 13 -6 -1 -1 -22 -19 -23 -46 -3 -14 12 -20 31 -23 80 -3 47
-8 65 -18 65 -11 0 -14 16 -13 68 l1 67 16 -45 c26 -69 32 -75 49 -51 17 25
38 27 47 6 4 -12 14 -14 40 -10 20 4 36 2 40 -4 14 -21 26 -10 26 22 0 35 25
97 40 97 16 0 20 -32 10 -76 -13 -58 2 -117 39 -154 38 -38 67 -26 82 34 9 36
23 55 65 91 29 25 69 52 88 60 52 22 170 100 208 138 18 18 51 55 73 82 100
121 145 155 130 98 -4 -16 -41 -61 -86 -104 -78 -76 -79 -78 -78 -126 1 -81
-16 -162 -39 -185 -19 -20 -22 -20 -28 -5 -8 23 -44 22 -44 -1 0 -10 5 -23 10
-28 7 -7 4 -19 -10 -36 -11 -15 -20 -29 -20 -33 0 -3 -13 -25 -29 -49 -27 -39
-28 -44 -15 -75 16 -38 18 -77 5 -85 -5 -4 -12 -30 -16 -59 -4 -28 -20 -79
-35 -112 -68 -147 -73 -161 -74 -214 -1 -45 -5 -56 -29 -75 -15 -12 -27 -24
-27 -27 0 -17 85 -115 126 -146 27 -21 58 -49 69 -63 46 -58 105 -104 180
-140 110 -53 139 -60 236 -62 76 -2 93 1 166 31 45 19 105 52 134 74 58 44 68
43 138 -12 20 -16 70 -43 111 -60 66 -29 85 -32 165 -32 101 1 128 8 240 61
75 36 134 82 180 140 11 14 42 42 69 63 41 31 126 129 126 146 0 3 -12 15 -27
27 -24 19 -28 30 -29 75 -1 53 -6 67 -74 214 -15 33 -31 84 -35 112 -4 29 -11
55 -16 59 -13 8 -11 47 5 85 13 31 12 36 -15 75 -16 24 -29 46 -29 49 0 4 -9
18 -20 33 -14 17 -17 29 -10 36 5 5 10 18 10 28 0 23 -36 24 -44 1 -6 -15 -9
-15 -28 5 -23 23 -40 104 -39 185 1 41 -4 52 -31 81 -117 120 -151 166 -134
184 4 3 22 -2 41 -12 18 -10 38 -15 44 -12 15 9 14 39 -1 54 -9 9 -9 12 0 12
7 0 12 -4 12 -10 0 -5 6 -10 13 -10 7 0 30 -18 51 -39 33 -33 37 -43 31 -69
-5 -26 -4 -30 12 -26 11 3 34 -9 58 -30 22 -19 51 -41 65 -48 33 -17 80 -63
80 -78 0 -24 73 -129 109 -158 28 -23 41 -43 50 -77 15 -61 44 -73 82 -35 37
37 52 96 39 154 -10 44 -6 76 10 76 15 0 40 -62 40 -97 0 -32 12 -43 26 -22 4
6 20 8 40 4 26 -4 36 -2 40 10 9 21 30 19 47 -6 17 -24 23 -18 49 51 l16 45 1
-67 c1 -52 -2 -68 -13 -68 -10 0 -15 -18 -18 -65 -3 -49 -9 -68 -23 -80 -27
-19 -43 -19 -48 3 -4 13 -5 14 -6 1 -1 -17 -69 -59 -95 -59 -23 0 -20 -19 14
-95 17 -37 30 -80 30 -95 0 -16 5 -32 10 -35 6 -3 10 -19 10 -34 0 -15 4 -41
9 -57 5 -16 17 -56 27 -89 9 -33 23 -67 29 -75 13 -17 18 -27 51 -119 33 -92
150 -239 241 -302 48 -34 95 -37 166 -13 43 14 127 86 127 107 0 16 58 82 87
99 44 25 73 6 140 -94 71 -107 184 -225 238 -249 22 -9 55 -30 72 -46 34 -29
58 -43 158 -88 33 -14 76 -39 96 -55 38 -30 49 -30 49 2 0 26 36 94 58 110 10
7 26 25 36 40 18 28 93 69 123 67 14 0 15 -2 3 -6 -8 -3 -17 -9 -20 -12 -3 -3
-28 -22 -57 -41 -40 -27 -57 -47 -72 -84 -30 -70 -27 -105 14 -165 35 -51 35
-51 29 -131 -4 -51 -3 -89 4 -103 6 -12 13 -35 17 -52 8 -37 87 -115 117 -115
13 0 46 -7 73 -14 l50 -14 -57 -1 c-37 -1 -58 -5 -58 -12 0 -7 16 -32 36 -56
39 -48 54 -88 54 -148 0 -48 24 -95 96 -191 73 -97 164 -185 379 -367 132
-112 187 -161 285 -254 76 -73 100 -92 118 -93 9 0 12 519 12 2565 0 2436 -1
2565 -17 2565 -10 0 -56 23 -103 51 -140 84 -172 101 -245 137 -38 19 -77 39
-85 46 -8 7 -35 21 -60 31 -25 11 -47 22 -50 25 -39 46 -201 128 -384 195 -62
23 -103 59 -146 132 -44 74 -175 222 -260 293 -91 77 -157 104 -229 95 -31 -4
-92 -10 -135 -13 -44 -4 -81 -12 -83 -18 -2 -6 11 -24 29 -41 70 -61 70 -60
-52 -60 -104 0 -112 -1 -138 -25 -15 -13 -40 -32 -55 -42 -30 -18 -33 -18
-203 35 -42 13 -115 11 -169 -3 -24 -7 -48 -9 -51 -5 -4 4 -3 22 3 41 12 39 4
46 -46 46 -31 0 -51 16 -51 42 0 24 -35 41 -70 33 -96 -21 -120 -13 -120 40 0
28 -15 35 -54 24 -18 -5 -34 -5 -42 2 -31 25 -170 -47 -256 -132 -41 -41 -47
-66 -22 -104 15 -23 15 -25 0 -31 -10 -4 -26 2 -39 15 -16 14 -48 24 -101 33
-147 23 -258 -22 -398 -158 -16 -14 -28 -30 -28 -34 0 -11 60 4 88 21 18 11
26 11 42 1 11 -6 27 -12 35 -12 25 0 17 -37 -12 -59 -45 -33 -83 -75 -83 -90
0 -8 10 -25 22 -38 l21 -23 -46 -41 c-45 -39 -59 -71 -37 -84 5 -3 6 -13 3
-21 -5 -14 -7 -14 -14 -1 -13 22 -49 10 -49 -17 0 -11 7 -29 15 -39 12 -16 10
-25 -11 -68 -14 -27 -41 -61 -62 -76 -20 -16 -48 -41 -61 -57 -14 -15 -31 -34
-38 -41 -13 -14 -8 -45 7 -45 17 0 40 -32 40 -56 0 -28 -3 -29 -34 -8 -31 19
-37 10 -46 -70 -4 -33 -15 -99 -23 -146 -9 -47 -19 -120 -22 -163 -7 -84 -36
-137 -67 -125 -12 5 -16 38 -20 186 -6 201 -14 231 -65 244 -30 8 -75 54 -102
105 -10 19 -8 22 16 25 35 4 38 19 12 49 -11 13 -31 35 -43 49 -12 14 -38 37
-58 53 -21 15 -48 49 -62 76 -21 43 -23 52 -11 68 8 10 15 28 15 39 0 27 -36
39 -49 17 -7 -13 -9 -13 -14 1 -3 8 -2 18 3 21 22 13 8 45 -37 84 l-46 41 21
23 c12 13 22 30 22 38 0 15 -38 57 -82 90 -30 22 -38 59 -13 59 8 0 24 6 35
12 16 10 24 10 42 -1 28 -17 88 -32 88 -21 0 19 -116 117 -180 152 -111 61
-283 63 -347 5 -13 -11 -29 -17 -39 -13 -15 6 -15 8 0 31 26 39 20 69 -22 107
-98 88 -227 153 -256 129 -8 -7 -24 -7 -42 -2 -16 4 -35 6 -41 4z m-317 -944
c19 -11 34 -24 34 -29 0 -13 105 -70 129 -70 12 0 24 -7 27 -15 4 -8 14 -15
23 -15 21 0 45 -15 114 -67 31 -24 62 -43 69 -43 7 0 22 -7 32 -15 11 -8 29
-12 43 -9 17 5 24 1 29 -12 3 -11 14 -37 24 -59 10 -22 21 -57 24 -78 4 -20
25 -83 48 -139 22 -55 40 -110 39 -122 -1 -12 -1 -52 -1 -91 0 -77 -3 -85 -40
-102 -26 -11 -26 -12 -25 -119 1 -60 7 -144 13 -186 22 -148 13 -330 -19 -389
-17 -32 -71 -79 -91 -79 -9 0 -20 9 -23 20 -7 21 -25 28 -25 10 0 -12 -37 -13
-44 -1 -3 4 3 33 14 64 14 40 20 83 20 147 0 85 1 90 25 106 33 22 32 45 -4
72 l-30 22 -16 -50 c-9 -27 -21 -53 -27 -56 -6 -4 -20 6 -33 21 -25 32 -53 29
-62 -6 -5 -18 -7 -17 -24 11 -11 17 -19 36 -19 43 0 14 -37 111 -56 149 -8 14
-14 37 -14 51 0 16 -12 33 -35 51 -19 15 -35 32 -35 37 0 14 -64 79 -78 79
-12 0 -28 15 -61 58 -13 18 -29 32 -35 32 -5 0 -24 13 -41 30 -30 29 -140 100
-155 100 -4 0 -13 7 -20 15 -7 9 -20 15 -29 14 -9 -1 -29 3 -44 9 -16 7 -41
12 -56 12 -16 0 -45 7 -64 15 -20 8 -59 15 -87 15 -73 0 -224 54 -215 77 13
36 -117 -9 -175 -60 -35 -31 -90 -60 -98 -53 -3 4 -1 16 6 26 17 28 15 39 -8
33 -11 -3 -20 -9 -20 -13 0 -5 -14 -13 -30 -19 -39 -13 -55 -52 -29 -66 15 -9
17 -13 7 -23 -15 -15 -38 -16 -38 -1 0 7 -14 8 -40 4 -22 -4 -40 -4 -40 0 0
25 39 70 87 101 32 21 97 64 145 96 48 32 102 64 120 70 18 6 44 19 57 30 13
10 29 18 36 18 16 0 110 62 150 99 76 70 312 190 374 191 8 0 27 11 41 25 58
55 193 73 256 34z m3356 5 c25 -8 56 -26 68 -40 13 -13 31 -24 39 -24 64 -1
299 -120 376 -191 40 -37 134 -99 150 -99 7 0 23 -8 36 -18 13 -11 39 -24 57
-30 18 -6 72 -38 120 -70 48 -32 113 -75 145 -96 48 -31 87 -76 87 -101 0 -4
-18 -4 -40 0 -26 4 -40 3 -40 -4 0 -15 -23 -14 -38 1 -10 10 -8 14 7 23 26 14
10 53 -29 66 -16 6 -30 14 -30 19 0 4 -9 10 -20 13 -23 6 -25 -5 -8 -33 7 -10
9 -22 6 -26 -8 -7 -63 22 -98 53 -58 51 -188 96 -175 60 9 -23 -142 -77 -215
-77 -28 0 -67 -7 -87 -15 -19 -8 -48 -15 -64 -15 -15 0 -40 -5 -56 -12 -15 -6
-35 -10 -44 -9 -9 1 -22 -5 -29 -14 -7 -8 -16 -15 -20 -15 -15 0 -125 -71
-155 -100 -17 -17 -36 -30 -41 -30 -6 0 -22 -14 -35 -32 -33 -43 -49 -58 -61
-58 -14 0 -78 -65 -78 -79 0 -5 -16 -22 -35 -37 -23 -18 -35 -35 -35 -51 0
-14 -6 -37 -14 -51 -19 -38 -56 -135 -56 -149 0 -7 -8 -26 -19 -43 -17 -28
-19 -29 -24 -11 -9 35 -37 38 -62 6 -13 -15 -27 -25 -33 -21 -6 3 -18 29 -27
56 l-16 50 -30 -22 c-36 -27 -37 -50 -4 -72 24 -16 25 -21 25 -106 0 -64 6
-107 20 -147 11 -31 17 -60 14 -64 -7 -12 -44 -11 -44 1 0 18 -18 11 -25 -10
-3 -11 -14 -20 -23 -20 -20 0 -74 47 -91 79 -32 59 -41 241 -19 389 6 42 12
126 13 186 1 107 1 108 -25 119 -37 17 -40 25 -40 102 0 39 0 79 -1 91 -1 12
17 67 39 122 23 56 44 119 48 139 3 21 14 56 24 78 10 22 21 48 24 59 5 13 12
17 29 12 14 -3 32 1 43 9 10 8 25 15 32 15 7 0 38 19 69 43 69 52 93 67 114
67 9 0 19 7 23 15 3 8 15 15 27 15 24 0 129 57 129 70 0 4 15 17 33 29 39 25
123 28 189 5z m-1472 -314 c0 -5 -2 -10 -4 -10 -3 0 -8 5 -11 10 -3 6 -1 10 4
10 6 0 11 -4 11 -10z m21 -97 c-8 -14 -10 -9 -10 27 1 42 1 43 10 18 7 -18 7
-33 0 -45z m29 -168 c0 -14 5 -25 10 -25 6 0 10 -7 10 -15 0 -8 -6 -15 -14
-15 -9 0 -15 14 -18 40 -2 22 0 40 4 40 5 0 8 -11 8 -25z m-3375 -97 c-4 -24
-10 -73 -15 -110 -4 -38 -15 -79 -24 -93 -9 -14 -46 -39 -82 -56 -48 -23 -72
-42 -92 -72 -31 -46 -69 -87 -82 -87 -17 0 -21 59 -6 102 29 84 46 116 104
194 79 105 144 162 186 163 16 1 18 -4 11 -41z m6113 18 c119 -76 266 -319
247 -407 -4 -16 -11 -29 -15 -29 -13 0 -51 41 -82 87 -20 30 -44 49 -92 72
-36 17 -73 42 -82 56 -9 14 -20 55 -24 93 -5 37 -11 86 -15 110 -9 51 5 55 63
18z m-2737 -176 c2 -49 -1 -64 -14 -72 -10 -5 -17 -21 -17 -37 0 -24 -15 -41
-36 -41 -2 0 -4 31 -4 69 0 72 13 125 38 154 22 25 31 6 33 -73z m-85 -222
c-15 -138 -28 -184 -47 -173 -10 7 -12 78 -2 89 14 13 32 81 27 98 -6 20 2 38
18 38 7 0 8 -18 4 -52z m104 -178 c0 -10 6 -23 13 -27 7 -4 21 -35 31 -68 10
-33 22 -68 27 -77 5 -10 9 -34 9 -53 0 -19 5 -35 10 -35 6 0 10 -15 10 -32
l-1 -33 -24 45 c-13 25 -24 53 -25 63 0 9 -16 40 -35 68 -30 44 -35 59 -35
110 0 33 4 59 10 59 6 0 10 -9 10 -20z m-3785 -299 c-8 -17 -18 -31 -20 -31
-3 0 -5 18 -5 39 0 30 4 40 18 43 23 5 26 -15 7 -51z m6855 8 c0 -47 -5 -48
-25 -9 -21 41 -19 59 5 53 16 -4 20 -14 20 -44z m-2910 -100 c0 -4 -4 -10 -9
-14 -12 -7 -31 26 -31 51 0 14 3 13 20 -6 11 -13 20 -27 20 -31z m-960 -69
c-6 -11 -13 -20 -15 -20 -3 0 -5 9 -5 20 0 11 7 20 15 20 13 0 14 -4 5 -20z
m-704 -77 c6 -21 2 -30 -14 -41 -16 -11 -19 -18 -12 -32 6 -12 5 -23 -5 -36
-15 -21 -13 -22 -30 31 -2 8 -11 12 -20 9 -29 -12 -16 33 20 65 44 38 53 39
61 4z m2329 -4 c36 -32 49 -77 20 -65 -10 3 -18 -1 -21 -12 -3 -9 -8 -24 -11
-32 -4 -12 -7 -12 -18 4 -10 13 -11 24 -5 36 7 14 4 21 -12 32 -16 11 -20 20
-14 41 8 35 17 34 61 -4z m-1559 -36 c-11 -11 -19 6 -11 24 8 17 8 17 12 0 3
-10 2 -21 -1 -24z m-890 -87 c-3 -11 -6 -31 -6 -43 0 -31 -39 -71 -51 -52 -16
26 -10 88 11 109 25 25 54 16 46 -14z m2564 3 c12 -21 13 -79 2 -96 -7 -10
-12 -10 -26 0 -22 16 -41 108 -24 118 15 10 37 0 48 -22z m-1597 -396 c-8 -91
-13 -92 -13 -5 0 40 4 72 10 72 5 0 7 -27 3 -67z m-2905 -1127 c3 -13 -1 -17
-14 -14 -11 2 -20 11 -22 22 -3 13 1 17 14 14 11 -2 20 -11 22 -22z m6422 9
c0 -16 -27 -32 -37 -22 -3 4 -3 13 0 22 8 20 37 20 37 0z m-6156 -400 c30 -46
12 -142 -23 -120 -14 8 -51 93 -51 115 0 36 52 39 74 5z m5910 19 c9 -3 16
-14 16 -24 0 -22 -37 -107 -51 -115 -35 -22 -53 74 -23 120 17 25 30 30 58 19z
m-6163 -306 c22 -6 39 -15 39 -20 0 -17 -77 -1 -84 18 -7 17 -4 17 45 2z
m6403 -3 c-4 -8 -10 -15 -14 -15 -4 0 -22 -3 -39 -6 -41 -9 -40 10 2 24 46 15
57 14 51 -3z"/>
<path d="M2666 5294 c-4 -10 3 -14 24 -14 36 0 40 16 6 22 -15 3 -27 0 -30 -8z"/>
<path d="M1735 5223 c-11 -2 -31 -13 -45 -23 l-25 -20 26 0 c35 0 101 28 94
40 -6 10 -14 11 -50 3z"/>
<path d="M2241 5155 c-13 -36 -13 -37 31 -77 l43 -41 -32 -13 c-52 -22 -42
-42 25 -49 31 -4 69 -11 84 -17 34 -13 58 -5 58 20 0 27 20 42 57 42 40 0 41
6 6 42 -23 24 -24 28 -10 34 26 10 20 24 -9 24 -21 0 -25 4 -21 20 7 28 -8 35
-83 37 -36 0 -81 4 -100 8 -34 6 -36 5 -49 -30z"/>
<path d="M2790 4746 c0 -14 5 -26 10 -26 6 0 10 9 10 19 0 11 -4 23 -10 26 -6
4 -10 -5 -10 -19z"/>
<path d="M5303 5303 c-33 -6 -28 -23 7 -23 22 0 28 4 24 15 -4 8 -7 14 -8 14
0 -1 -11 -4 -23 -6z"/>
<path d="M6216 5221 c-9 -14 62 -43 94 -39 l24 3 -24 16 c-34 22 -86 33 -94
20z"/>
<path d="M5676 5179 c-11 -7 -38 -9 -67 -5 -59 8 -90 -5 -82 -34 4 -16 0 -20
-21 -20 -29 0 -35 -14 -9 -24 14 -6 13 -10 -10 -34 -35 -36 -34 -42 6 -42 37
0 57 -15 57 -42 0 -25 24 -33 58 -20 15 6 53 13 85 17 66 7 76 27 25 49 l-33
13 43 41 c43 40 44 41 31 76 -10 29 -18 36 -39 36 -14 0 -33 -5 -44 -11z"/>
<path d="M5197 4763 c-11 -10 -8 -43 3 -43 6 0 10 11 10 25 0 26 -2 29 -13 18z"/>
<path d="M2358 6373 c7 -3 16 -2 19 1 4 3 -2 6 -13 5 -11 0 -14 -3 -6 -6z"/>
<path d="M5628 6373 c7 -3 16 -2 19 1 4 3 -2 6 -13 5 -11 0 -14 -3 -6 -6z"/>
<path d="M590 6291 c0 -25 6 -27 13 -6 4 8 2 17 -3 20 -6 4 -10 -3 -10 -14z"/>
<path d="M440 6191 c0 -5 9 -7 20 -4 11 3 20 7 20 9 0 2 -9 4 -20 4 -11 0 -20
-4 -20 -9z"/>
<path d="M318 6163 c7 -3 16 -2 19 1 4 3 -2 6 -13 5 -11 0 -14 -3 -6 -6z"/>
<path d="M260 6140 c0 -5 7 -7 15 -4 8 4 15 8 15 10 0 2 -7 4 -15 4 -8 0 -15
-4 -15 -10z"/>
<path d="M198 6108 c9 -9 15 -9 24 0 9 9 7 12 -12 12 -19 0 -21 -3 -12 -12z"/>
<path d="M80 6065 c0 -9 5 -15 11 -13 6 2 11 8 11 13 0 5 -5 11 -11 13 -6 2
-11 -4 -11 -13z"/>
<path d="M478 5713 c7 -3 16 -2 19 1 4 3 -2 6 -13 5 -11 0 -14 -3 -6 -6z"/>
<path d="M358 5683 c7 -3 16 -2 19 1 4 3 -2 6 -13 5 -11 0 -14 -3 -6 -6z"/>
<path d="M243 5663 c15 -2 39 -2 55 0 15 2 2 4 -28 4 -30 0 -43 -2 -27 -4z"/>
<path d="M1002 1110 l1 -205 9 187 c6 126 6 194 -1 205 -7 13 -10 -43 -9 -187z"/>
<path d="M894 930 c0 -69 1 -97 3 -62 2 34 2 90 0 125 -2 34 -3 6 -3 -63z"/>
<path d="M430 584 c0 -8 5 -12 10 -9 6 4 8 11 5 16 -9 14 -15 11 -15 -7z"/>
<path d="M522 80 c0 -14 2 -19 5 -12 2 6 2 18 0 25 -3 6 -5 1 -5 -13z"/>
</g>
</svg>
